HIERARCHY
ROOT Hips
{
 OFFSET 0.000000 0.000000 0.000000
 CHANNELS 6 Xposition Yposition Zposition Yrotation Xrotation Zrotation
 JOINT Chest
 {
  OFFSET 0.000000 9.588913 -0.003946
  CHANNELS 3 Yrotation Xrotation Zrotation
  JOINT Chest2
  {
   OFFSET 0.000000 9.541882 0.008053
   CHANNELS 3 Yrotation Xrotation Zrotation
   JOINT Chest3
   {
    OFFSET 0.000000 9.501360 0.000000
    CHANNELS 3 Yrotation Xrotation Zrotation
    JOINT Chest4
    {
     OFFSET 0.000000 9.491660 0.000000
     CHANNELS 3 Yrotation Xrotation Zrotation
     JOINT Neck
     {
      OFFSET 0.000000 14.331917 0.000000
      CHANNELS 3 Yrotation Xrotation Zrotation
      JOINT Head
      {
       OFFSET 0.000000 8.884799 0.017034
       CHANNELS 3 Yrotation Xrotation Zrotation
       End Site
       {
        OFFSET 0.000000 16.896195 0.008993
       }
      }
     }
     JOINT RightCollar
     {
      OFFSET -2.923010 9.499495 0.000000
      CHANNELS 3 Yrotation Xrotation Zrotation
      JOINT RightShoulder
      {
       OFFSET -13.795216 0.000000 0.000000
       CHANNELS 3 Yrotation Xrotation Zrotation
       JOINT RightElbow
       {
        OFFSET -30.272209 0.000000 0.000000
        CHANNELS 3 Yrotation Xrotation Zrotation
        JOINT RightWrist
        {
         OFFSET -24.478199 0.000000 0.000000
         CHANNELS 3 Yrotation Xrotation Zrotation
         End Site
         {
          OFFSET -18.090752 0.000000 0.000000
         }
        }
       }
      }
     }
     JOINT LeftCollar
     {
      OFFSET 2.923010 9.499495 0.000000
      CHANNELS 3 Yrotation Xrotation Zrotation
      JOINT LeftShoulder
      {
       OFFSET 13.795216 0.000000 0.000000
       CHANNELS 3 Yrotation Xrotation Zrotation
       JOINT LeftElbow
       {
        OFFSET 30.272209 0.000000 0.000000
        CHANNELS 3 Yrotation Xrotation Zrotation
        JOINT LeftWrist
        {
         OFFSET 24.478199 0.000000 0.000000
         CHANNELS 3 Yrotation Xrotation Zrotation
         End Site
         {
          OFFSET 18.090752 0.000000 0.000000
         }
        }
       }
      }
     }
    }
   }
  }
 }
 JOINT RightHip
 {
  OFFSET -7.826875 0.019532 0.001973
  CHANNELS 3 Yrotation Xrotation Zrotation
  JOINT RightKnee
  {
   OFFSET 0.000000 -40.546152 -0.001885
   CHANNELS 3 Yrotation Xrotation Zrotation
   JOINT RightAnkle
   {
    OFFSET 0.000000 -39.417092 -0.003189
    CHANNELS 3 Yrotation Xrotation Zrotation
    JOINT RightToe
    {
     OFFSET 0.000000 -7.579396 17.243563
     CHANNELS 3 Yrotation Xrotation Zrotation
     End Site
     {
      OFFSET 0.000000 -1.500329 6.694466
     }
    }
   }
  }
 }
 JOINT LeftHip
 {
  OFFSET 7.826875 0.019532 0.001973
  CHANNELS 3 Yrotation Xrotation Zrotation
  JOINT LeftKnee
  {
   OFFSET 0.000000 -40.546152 -0.001885
   CHANNELS 3 Yrotation Xrotation Zrotation
   JOINT LeftAnkle
   {
    OFFSET 0.000000 -39.417092 -0.003189
    CHANNELS 3 Yrotation Xrotation Zrotation
    JOINT LeftToe
    {
     OFFSET 0.000000 -7.579396 17.243563
     CHANNELS 3 Yrotation Xrotation Zrotation
     End Site
     {
      OFFSET 0.000000 -1.500329 6.694466
     }
    }
   }
  }
 }
}
MOTION
Frames: 8
Frame Time: 0.008333
-10.938612 87.833030 -8.593364 -127.265794 -10.194994 -5.820472 0.328827 1.895370 3.175625 0.220010 1.056458 1.446901 0.279189 1.319679 1.809338 0.220012 1.056460 1.446906 4.569140 26.700996 1.517630 4.674415 3.622818 0.626516 -0.115566 -2.502312 0.818091 -7.315162 -14.185208 81.444049 70.716035 -44.116969 22.184336 7.494636 -13.841893 -0.961599 -0.979442 0.303853 0.077914 10.313495 4.035255 -87.519299 -50.645479 -14.489020 -21.043400 6.709668 -11.869284 4.598332 -2.287182 13.838701 8.540040 -3.168491 2.650464 0.477604 -3.300239 -7.014822 -2.664525 0.028865 0.938611 -0.054973 10.224711 -3.858530 12.094518 4.866468 29.164549 1.524986 2.286441 -14.493147 -5.468089 -0.070259 -0.706323 -0.032813
-10.916730 87.827667 -8.715081 -127.195906 -10.104168 -5.796106 0.325934 1.750343 3.192532 0.219531 0.974036 1.474624 0.278337 1.216637 1.843931 0.219533 0.974038 1.474629 4.584672 26.838734 1.591840 4.677595 3.798188 0.705821 -0.145147 -2.535440 0.809141 -7.341060 -14.245557 81.456453 70.779846 -44.283744 22.358570 7.543634 -13.887957 -1.037340 -0.981662 0.277062 0.092222 10.279525 4.070969 -87.608996 -51.263354 -15.327087 -21.764549 6.683206 -12.124206 4.759471 -2.341357 13.840457 8.602050 -3.210542 2.561652 0.456708 -3.285284 -6.974369 -2.700143 0.029937 0.878537 -0.062548 10.328057 -3.959695 12.134176 4.868050 29.177395 1.575458 2.174010 -14.511550 -5.527525 -0.077395 -0.668192 -0.047147
-10.904999 87.826105 -8.827258 -127.141240 -10.017603 -5.747871 0.332437 1.608184 3.202434 0.223630 0.893153 1.498604 0.283191 1.115504 1.873858 0.223631 0.893155 1.498609 4.613616 26.974618 1.662669 4.696458 3.972370 0.778499 -0.171353 -2.565956 0.794946 -7.358483 -14.307883 81.476710 70.875888 -44.483208 22.517847 7.615581 -13.940175 -1.110470 -0.977517 0.234458 0.102274 10.228695 4.076397 -87.694622 -51.849102 -16.198197 -22.511943 6.641279 -12.380219 4.899257 -2.398095 13.832641 8.632245 -3.237088 2.498842 0.432805 -3.285240 -6.946798 -2.728850 0.030067 0.823390 -0.065045 10.473296 -4.030805 12.142103 4.874790 29.142246 1.630784 2.055112 -14.515853 -5.585339 -0.084154 -0.629092 -0.052517
-10.904159 87.826913 -8.927501 -127.093775 -9.937730 -5.663233 0.346460 1.468576 3.192990 0.230239 0.815488 1.517809 0.291176 1.018385 1.897823 0.230240 0.815489 1.517814 4.659775 27.105186 1.733660 4.734373 4.141142 0.847566 -0.198072 -2.597289 0.778702 -7.370477 -14.373566 81.501008 70.990398 -44.703972 22.675080 7.716830 -14.005557 -1.206974 -0.975602 0.176749 0.111650 10.180764 4.052127 -87.780364 -52.412434 -17.058320 -23.280544 6.580257 -12.637297 5.047462 -2.476772 13.824535 8.610409 -3.249121 2.448456 0.410015 -3.288028 -6.901636 -2.751750 0.029677 0.750626 -0.063660 10.621707 -4.075551 12.104315 4.889837 29.090643 1.685579 1.944549 -14.521671 -5.645387 -0.087881 -0.587858 -0.048347
-10.908958 87.829220 -9.019473 -127.037864 -9.860867 -5.577160 0.358812 1.334271 3.196514 0.237607 0.740099 1.531382 0.300100 0.924111 1.914748 0.237608 0.740100 1.531386 4.725737 27.227752 1.809281 4.793182 4.301182 0.917346 -0.226122 -2.634902 0.761959 -7.382400 -14.444343 81.527711 71.112907 -44.931460 22.833786 7.843550 -14.081242 -1.342461 -0.981558 0.100242 0.125155 10.144253 4.007400 -87.862533 -52.966178 -17.884018 -24.064531 6.489644 -12.898995 5.235168 -2.586223 13.820332 8.569694 -3.245998 2.409974 0.391922 -3.276188 -6.896151 -2.774224 0.030357 0.713194 -0.058749 10.734456 -4.103271 12.059891 4.911266 29.022888 1.729438 1.851943 -14.501901 -5.709678 -0.090722 -0.564378 -0.037228
-10.917606 87.831390 -9.101299 -126.972314 -9.780323 -5.479840 0.369187 1.201617 3.199117 0.244478 0.665708 1.539729 0.308392 0.831089 1.925139 0.244480 0.665708 1.539734 4.812221 27.341262 1.892592 4.873014 4.451165 0.991053 -0.257388 -2.680347 0.745672 -7.389683 -14.520064 81.556021 71.244095 -45.147574 22.987219 7.989400 -14.158982 -1.524415 -1.000641 0.007406 0.147280 10.116667 3.950531 -87.939019 -53.522135 -18.669296 -24.847731 6.358482 -13.171268 5.479187 -2.719810 13.808741 8.500585 -3.233165 2.382037 0.381991 -3.253538 -6.902218 -2.796641 0.031389 0.686302 -0.052019 10.796382 -4.129417 12.000064 4.947692 28.964503 1.758654 1.774960 -14.475330 -5.775082 -0.091295 -0.551458 -0.020291
-10.927898 87.832578 -9.174939 -126.897046 -9.701011 -5.379682 0.375401 1.070416 3.203100 0.249898 0.592190 1.545430 0.314866 0.739167 1.932218 0.249899 0.592190 1.545434 4.917274 27.446482 1.981307 4.972277 4.591952 1.066632 -0.290149 -2.727988 0.727436 -7.387557 -14.601647 81.585486 71.386140 -45.334112 23.128894 8.148185 -14.232931 -1.749176 -1.035643 -0.093034 0.176064 10.089857 3.881730 -88.007731 -54.087505 -19.416502 -25.614443 6.185957 -13.457163 5.778790 -2.858308 13.792883 8.420183 -3.214992 2.362158 0.379697 -3.241389 -6.917380 -2.819602 0.031356 0.667858 -0.045581 10.804503 -4.156320 11.937781 4.998706 28.926207 1.770186 1.711683 -14.446617 -5.838528 -0.090378 -0.548568 -0.000918
-10.937967 87.832218 -9.242531 -126.813452 -9.628842 -5.284834 0.375805 0.942951 3.210096 0.252790 0.521001 1.551270 0.318188 0.650167 1.939467 0.252791 0.521002 1.551274 5.038304 27.541516 2.070529 5.089204 4.720956 1.139252 -0.317488 -2.776773 0.705902 -7.374956 -14.693223 81.614025 71.541719 -45.481657 23.248420 8.299672 -14.301287 -1.997293 -1.078819 -0.201402 0.209595 10.047214 3.800197 -88.062650 -54.668643 -20.129704 -26.354361 5.985469 -13.753750 6.113747 -2.983047 13.779560 8.345443 -3.192615 2.343559 0.378677 -3.250451 -6.936326 -2.841849 0.030594 0.655771 -0.039288 10.768534 -4.183614 11.882768 5.047696 28.911437 1.763231 1.665499 -14.420117 -5.897280 -0.089009 -0.552268 0.016210
